<svg xmlns="http://www.w3.org/2000/svg" fill="none" viewBox="0 0 320 320" height="320" width="320">
<rect fill-opacity="0.980392" fill="#8200FA" height="320" width="320"></rect>
<path fill="white" d="M127.43 213.667L154.76 97.6751C154.882 97.1352 155.11 96.6249 155.431 96.1738C155.752 95.7226 156.159 95.3396 156.629 95.0468C157.099 94.754 157.622 94.5572 158.168 94.4679C158.714 94.3785 159.273 94.3984 159.812 94.5264L192.364 102.47C193.452 102.749 194.386 103.444 194.965 104.407C195.543 105.369 195.719 106.521 195.455 107.613L168.125 223.605C168.003 224.144 167.775 224.655 167.454 225.106C167.133 225.557 166.726 225.94 166.256 226.233C165.787 226.526 165.263 226.722 164.717 226.812C164.171 226.901 163.612 226.881 163.074 226.753L130.522 218.81C129.436 218.528 128.503 217.831 127.925 216.87C127.347 215.908 127.17 214.758 127.43 213.667ZM203.715 226.016H237.205C237.76 226.011 238.308 225.897 238.819 225.681C239.33 225.464 239.793 225.149 240.181 224.753C240.57 224.358 240.877 223.889 241.085 223.375C241.293 222.86 241.397 222.31 241.392 221.755V102.47C241.397 101.915 241.293 101.365 241.085 100.85C240.878 100.336 240.571 99.8674 240.182 99.4717C239.793 99.0759 239.33 98.7607 238.819 98.544C238.308 98.3273 237.76 98.2134 237.205 98.2089H203.717C203.162 98.2134 202.613 98.3273 202.103 98.544C201.592 98.7607 201.129 99.0759 200.74 99.4717C200.351 99.8674 200.044 100.336 199.836 100.85C199.628 101.365 199.524 101.915 199.529 102.47V221.755C199.524 222.31 199.628 222.86 199.836 223.375C200.044 223.889 200.351 224.357 200.739 224.753C201.128 225.149 201.591 225.464 202.102 225.681C202.612 225.898 203.161 226.012 203.715 226.016L203.715 226.016ZM58.5954 209.031L88.6923 223.979C89.1873 224.223 89.7261 224.366 90.2772 224.4C90.8282 224.433 91.3803 224.356 91.9012 224.173C92.422 223.99 92.901 223.705 93.3101 223.334C93.7192 222.963 94.0502 222.515 94.2836 222.014L145.679 114.818C146.167 113.806 146.238 112.644 145.877 111.58C145.516 110.516 144.752 109.637 143.749 109.131L113.652 94.182C113.157 93.9377 112.619 93.7947 112.068 93.7615C111.517 93.7282 110.965 93.8052 110.444 93.9881C109.923 94.171 109.444 94.4561 109.035 94.8266C108.626 95.1971 108.295 95.6456 108.062 96.1457L56.6804 203.328C56.1898 204.34 56.1155 205.504 56.4735 206.57C56.8316 207.637 57.5933 208.52 58.5954 209.031Z"></path>
</svg>
