<svg width="600" height="600" viewBox="0 0 600 600" fill="none" xmlns="http://www.w3.org/2000/svg">
<rect width="600" height="600" rx="32" fill="#EA4B71"/>
<path fill-rule="evenodd" clip-rule="evenodd" d="M330.06 278.63V277.225C340.342 272.066 350.624 263.155 350.624 245.568C350.624 220.242 329.827 205 301.084 205C271.64 205 250.609 221.179 250.609 246.036C250.609 262.921 260.422 272.066 271.173 277.225V278.63C259.256 282.852 245 295.515 245 316.62C245 342.177 266.031 360 300.851 360C335.669 360 356 342.177 356 316.62C356 295.515 341.978 283.086 330.06 278.63ZM300.851 226.575C312.536 226.575 321.18 234.076 321.18 246.739C321.18 259.403 312.3 266.907 300.851 266.907C289.4 266.907 279.818 259.403 279.818 246.739C279.818 233.842 288.933 226.575 300.851 226.575ZM300.851 337.488C287.295 337.488 276.313 328.813 276.313 314.039C276.313 300.674 285.427 290.59 300.615 290.59C315.573 290.59 324.687 300.438 324.687 314.509C324.687 328.813 314.171 337.488 300.851 337.488Z" fill="white"/>
<path d="M126.991 357H97V240.333H124.413L126.991 254.099H128.865C135.895 244.999 145.737 238 163.311 238C191.192 238 209 255.732 209 286.3V357H179.009V292.366C179.009 273.234 167.997 263.899 153.937 263.899C139.645 263.899 126.991 272.999 126.991 293.767V357Z" fill="white"/>
<path d="M392 357H421.991V293.398C421.991 272.509 434.645 263.356 448.937 263.356C462.997 263.356 474.009 272.745 474.009 291.989V357H504V285.887C504 255.141 486.192 237.306 458.311 237.306C440.737 237.306 430.895 244.346 423.865 253.499H421.991L419.413 239.653H392V357Z" fill="white"/>
<path d="M422.056 225.243L403.672 224.823C403.672 214.861 406.246 207.054 411.395 201.402C416.544 195.75 422.895 192.923 430.45 192.923C434.088 192.923 437.25 193.539 439.936 194.77C442.622 195.945 445.084 197.317 447.323 198.884C449.617 200.451 451.856 201.85 454.038 203.081C456.221 204.256 458.627 204.844 461.258 204.844C464.447 204.844 466.966 203.641 468.812 201.234C470.715 198.828 471.695 195.75 471.751 192L489.798 192.756C489.742 202.773 487.14 210.552 481.992 216.093C476.843 221.577 470.519 224.347 463.02 224.403C458.991 224.459 455.605 223.872 452.863 222.64C450.121 221.409 447.715 220.01 445.644 218.443C443.629 216.876 441.587 215.505 439.516 214.33C437.446 213.099 435.011 212.483 432.213 212.483C429.247 212.483 426.813 213.658 424.91 216.009C423.007 218.359 422.056 221.437 422.056 225.243Z" fill="white"/>
</svg>
